<?xml version="1.0" encoding="UTF-8"?>
<svg version="1.1" xmlns="http://www.w3.org/2000/svg" width="590" height="259">
<path d="M0 0 C194.7 0 389.4 0 590 0 C590 85.47 590 170.94 590 259 C395.3 259 200.6 259 0 259 C0 173.53 0 88.06 0 0 Z " fill="#F8F8F6" transform="translate(0,0)"/>
<path d="M0 0 C0.69464355 0.36198486 1.38928711 0.72396973 2.10498047 1.09692383 C4.26801499 2.23357822 6.41681066 3.39347267 8.5625 4.5625 C9.20364746 4.90990234 9.84479492 5.25730469 10.50537109 5.61523438 C15.23321864 8.1920524 19.90266164 10.86506234 24.5625 13.5625 C25.44341309 14.07006836 26.32432617 14.57763672 27.23193359 15.10058594 C56.1957805 31.82906099 56.1957805 31.82906099 58.5625 36.5625 C59.10285594 41.4877115 59.10685469 45.43191718 56.9375 49.9375 C54.36936928 52.77596027 51.8907121 54.68133664 48.5625 56.5625 C47.9025 56.5625 47.2425 56.5625 46.5625 56.5625 C46.5625 57.2225 46.5625 57.8825 46.5625 58.5625 C47.243125 58.76875 47.92375 58.975 48.625 59.1875 C52.89110149 61.18439857 57.41038222 64.25826443 59.5625 68.5625 C59.95249063 72.61840253 59.83604224 75.01541553 58 78.6875 C55.09825438 82.11007175 52.35725062 84.17321258 48.5625 86.5625 C47.9025 86.5625 47.2425 86.5625 46.5625 86.5625 C46.5625 87.2225 46.5625 87.8825 46.5625 88.5625 C47.13613281 88.665625 47.70976562 88.76875 48.30078125 88.875 C52.61971266 90.1878358 55.73470607 93.11913188 58.5625 96.5625 C60.28623314 100.98291786 60.05869967 104.32200081 58.3125 108.6875 C54.26854538 112.91527074 49.60080983 115.65787934 44.5625 118.5625 C43.85448242 118.97209961 43.14646484 119.38169922 42.41699219 119.80371094 C38.14118922 122.27031366 33.85306886 124.71451155 29.55859375 127.1484375 C25.22399739 129.60847587 20.90640777 132.09660915 16.59765625 134.6015625 C15.41675414 135.28711987 14.23584596 135.97266678 13.05493164 136.65820312 C10.76185047 137.98964134 8.47112047 139.32488014 6.18139648 140.66210938 C5.13153564 141.27119141 4.0816748 141.88027344 3 142.5078125 C2.07058594 143.04937988 1.14117187 143.59094727 0.18359375 144.14892578 C-4.87748968 146.87840353 -8.4721416 147.80889082 -14.26953125 147.7578125 C-15.56181641 147.75136719 -16.85410156 147.74492187 -18.18554688 147.73828125 C-19.5403673 147.72157327 -20.89518501 147.70464342 -22.25 147.6875 C-23.62434251 147.67746003 -24.99869203 147.66833596 -26.37304688 147.66015625 C-29.72804317 147.63661242 -33.08268199 147.60372567 -36.4375 147.5625 C-36.47617188 146.31750732 -36.47617188 146.31750732 -36.515625 145.04736328 C-36.60070312 143.41903564 -36.60070312 143.41903564 -36.6875 141.7578125 C-36.73390625 140.68031738 -36.7803125 139.60282227 -36.828125 138.49267578 C-37.17369935 135.48233864 -37.17369935 135.48233864 -39.31420898 133.69555664 C-41.94647666 132.13592972 -44.67147643 130.87133356 -47.4375 129.5625 C-50.28019513 127.96733384 -53.07589335 126.29519542 -55.875 124.625 C-57.34747121 123.75619672 -58.82012501 122.88770283 -60.29296875 122.01953125 C-61.67462212 121.20076201 -63.05614194 120.38176736 -64.4375 119.5625 C-65.54738281 118.90636719 -66.65726563 118.25023437 -67.80078125 117.57421875 C-77.47505603 111.67016202 -77.47505603 111.67016202 -80.4375 106.5625 C-81.38768842 102.51677588 -81.37894016 99.18040544 -79.2578125 95.53515625 C-76.44087944 92.08331858 -73.45184051 89.56967026 -69.4375 87.5625 C-70.13875 87.046875 -70.84 86.53125 -71.5625 86 C-79.87386364 78.95340909 -79.87386364 78.95340909 -80.921875 74.5078125 C-81.09014919 70.04854645 -80.27769249 66.95240716 -77.4375 63.5625 C-71.59495856 58.5625 -71.59495856 58.5625 -67.4375 58.5625 C-67.4375 57.9025 -67.4375 57.2425 -67.4375 56.5625 C-68.118125 56.35625 -68.79875 56.15 -69.5 55.9375 C-73.76610149 53.94060143 -78.28538222 50.86673557 -80.4375 46.5625 C-80.74609375 44.64453125 -80.74609375 44.64453125 -80.875 42.375 C-80.93558594 41.63894531 -80.99617188 40.90289062 -81.05859375 40.14453125 C-79.76830944 34.78051912 -75.46408826 31.00489729 -70.90625 28.1484375 C-69.59066863 27.39844253 -68.26726585 26.66204784 -66.9375 25.9375 C-65.4318276 25.08415162 -63.9266445 24.22993951 -62.421875 23.375 C-61.62072266 22.92511719 -60.81957031 22.47523437 -59.99414062 22.01171875 C-55.35557149 19.3823694 -50.77510663 16.65445492 -46.1875 13.9375 C-45.24890137 13.38449219 -44.31030273 12.83148438 -43.34326172 12.26171875 C-38.20035626 9.22614575 -33.1126605 6.12460825 -28.0625 2.9375 C-18.35357197 -3.05472902 -10.62466243 -5.73561393 0 0 Z " fill="#15181C" transform="translate(102.4375,57.4375)"/>
<path d="M0 0 C2.41584272 1.19647126 4.71055659 2.50827778 7.01879883 3.90087891 C7.86804932 4.39023926 8.7172998 4.87959961 9.59228516 5.38378906 C12.2912101 6.94863482 14.96876958 8.54557211 17.64379883 10.15087891 C18.99078857 10.95187012 18.99078857 10.95187012 20.36499023 11.76904297 C24.62068207 14.29986964 28.86412749 16.84897979 33.09301758 19.42431641 C37.54527543 22.1203236 42.08393264 24.64270168 46.64379883 27.15087891 C55.28368943 31.97452153 55.28368943 31.97452153 56.58129883 36.21337891 C53.5142072 45.82359936 37.10570452 51.96563162 28.71801758 56.45947266 C24.83606631 58.59528574 21.02181908 60.83659646 17.20629883 63.08837891 C16.47725342 63.51666992 15.74820801 63.94496094 14.99707031 64.38623047 C11.67570601 66.34150481 8.36803812 68.31172615 5.09692383 70.35009766 C4.06051758 70.98560547 3.02411133 71.62111328 1.95629883 72.27587891 C1.06555664 72.83533203 0.17481445 73.39478516 -0.74291992 73.97119141 C-3.90554647 75.39886438 -5.90462376 75.40231123 -9.35620117 75.15087891 C-11.87890625 74.11621094 -11.87890625 74.11621094 -14.37573242 72.65869141 C-15.30683838 72.12356934 -16.23794434 71.58844727 -17.19726562 71.03710938 C-18.17783936 70.45590332 -19.15841309 69.87469727 -20.16870117 69.27587891 C-21.70240356 68.38666748 -21.70240356 68.38666748 -23.26708984 67.47949219 C-26.30386253 65.71507047 -29.33039288 63.93401763 -32.35620117 62.15087891 C-33.90756791 61.24860401 -35.45957832 60.34743421 -37.01245117 59.44775391 C-41.14539173 57.04584552 -45.25288413 54.60295231 -49.35620117 52.15087891 C-50.56324707 51.43424072 -50.56324707 51.43424072 -51.79467773 50.703125 C-54.29889401 49.21398831 -56.79702341 47.7151138 -59.29370117 46.21337891 C-60.07011963 45.75237793 -60.84653809 45.29137695 -61.64648438 44.81640625 C-62.36408936 44.38150879 -63.08169434 43.94661133 -63.82104492 43.49853516 C-64.45647217 43.11705322 -65.09189941 42.73557129 -65.74658203 42.3425293 C-67.35620117 41.15087891 -67.35620117 41.15087891 -69.35620117 38.15087891 C-69.20294516 35.1001265 -68.85961801 33.64846916 -66.66870117 31.48291016 C-65.90557617 30.98146484 -65.14245117 30.48001953 -64.35620117 29.96337891 C-63.44999023 29.36783203 -62.5437793 28.77228516 -61.61010742 28.15869141 C-55.66962091 24.4931331 -49.65714918 20.95896548 -43.6159668 17.46240234 C-40.63941379 15.73486963 -37.67405942 13.98871058 -34.71020508 12.23950195 C-33.27439961 11.39377791 -31.83658984 10.55144675 -30.39672852 9.71264648 C-27.21345987 7.85617252 -24.06025846 5.98066142 -20.97338867 3.96728516 C-19.9653418 3.32662109 -18.95729492 2.68595703 -17.91870117 2.02587891 C-17.07436523 1.46642578 -16.2300293 0.90697266 -15.36010742 0.33056641 C-10.25065058 -1.67600832 -5.20479199 -1.87568817 0 0 Z " fill="#F2F2F2" transform="translate(98.356201171875,62.84912109375)"/>
<path d="M0 0 C4.92555613 5.20644325 5.91796875 9.97526677 5.91796875 17.02734375 C1.29796875 17.02734375 -3.32203125 17.02734375 -8.08203125 17.02734375 C-8.16453125 15.91359375 -8.24703125 14.79984375 -8.33203125 13.65234375 C-8.66722012 10.0572067 -8.66722012 10.0572067 -10.76953125 8.71484375 C-11.53265625 8.48796875 -12.29578125 8.26109375 -13.08203125 8.02734375 C-13.94828125 7.65609375 -14.81453125 7.28484375 -15.70703125 6.90234375 C-21.74898131 5.33591225 -26.99329671 4.90837882 -32.58203125 7.90234375 C-36.52447059 11.03062701 -36.52447059 11.03062701 -37.51953125 15.90234375 C-37.40813774 18.98794411 -37.27155269 19.79207576 -35.26953125 22.27734375 C-28.5206298 25.98262298 -21.30203526 27.9858003 -13.89453125 29.96484375 C-5.18556392 32.39724974 1.41756252 36.02676343 6.66796875 43.52734375 C8.93837099 49.88447003 9.16871659 57.06813868 6.41796875 63.33984375 C1.73023761 71.2237552 -5.49177592 75.42083887 -14.08203125 78.02734375 C-24.54681186 80.44854299 -33.63052923 78.7258995 -43.22265625 73.96484375 C-48.26200515 70.80977314 -50.57916341 66.29164015 -53.08203125 61.02734375 C-53.41203125 60.36734375 -53.74203125 59.70734375 -54.08203125 59.02734375 C-54.08203125 56.71734375 -54.08203125 54.40734375 -54.08203125 52.02734375 C-49.46203125 52.02734375 -44.84203125 52.02734375 -40.08203125 52.02734375 C-39.66953125 53.28546875 -39.25703125 54.54359375 -38.83203125 55.83984375 C-37.5168825 59.31822782 -36.52503824 61.30584025 -33.08203125 63.02734375 C-26.77026769 65.01104087 -19.04906632 64.87524685 -13.08203125 62.02734375 C-10.30343773 59.97360071 -8.46518608 58.47641803 -7.5625 55.0625 C-7.28103192 52.6462925 -7.28103192 52.6462925 -8.08203125 49.02734375 C-13.0247552 44.33809283 -19.96221535 42.8337523 -26.421875 41.1640625 C-44.34934009 36.43401471 -44.34934009 36.43401471 -49.64453125 28.83984375 C-53.11308546 22.05354203 -53.30066204 13.89828861 -51.01953125 6.65234375 C-45.72976244 -0.5144398 -39.97567361 -5.40101829 -31.26953125 -7.72265625 C-19.32750832 -8.6592855 -9.50797826 -7.95977649 0 0 Z " fill="#101519" transform="translate(244.08203125,92.97265625)"/>
<path d="M0 0 C6.85278301 7.24437061 7.33974924 16.54379975 7.28515625 25.98828125 C7.2837413 26.9134404 7.28232635 27.83859955 7.28086853 28.79179382 C7.27528715 31.73622927 7.26273805 34.68058767 7.25 37.625 C7.24498259 39.62564994 7.24042011 41.62630108 7.23632812 43.62695312 C7.22532381 48.52216494 7.20807198 53.41731942 7.1875 58.3125 C2.5675 58.3125 -2.0525 58.3125 -6.8125 58.3125 C-7.1425 56.6625 -7.4725 55.0125 -7.8125 53.3125 C-8.25980469 53.66183594 -8.70710938 54.01117188 -9.16796875 54.37109375 C-10.07482422 55.05365234 -10.07482422 55.05365234 -11 55.75 C-11.59167969 56.20246094 -12.18335938 56.65492188 -12.79296875 57.12109375 C-18.61234533 60.55418825 -27.55235059 60.29087066 -33.97265625 58.81640625 C-39.99167955 56.47494004 -43.94536901 51.95011711 -46.8125 46.3125 C-47.6837281 40.57691498 -48.04965991 34.29165783 -44.8125 29.25 C-37.2572973 20.72401706 -25.23905813 20.38340103 -14.625 19.6875 C-12.35452187 19.55620615 -10.08378649 19.42897623 -7.8125 19.3125 C-8.23520415 15.89301271 -8.77210249 12.60255287 -9.8125 9.3125 C-13.02409909 6.85657128 -16.8087378 6.88979412 -20.81640625 6.98828125 C-24.14354762 7.52869756 -26.26990331 9.19366943 -28.8125 11.3125 C-29.4725 12.3025 -30.1325 13.2925 -30.8125 14.3125 C-33.8515625 14.60546875 -33.8515625 14.60546875 -37.4375 14.5 C-38.62601562 14.47292969 -39.81453125 14.44585937 -41.0390625 14.41796875 C-41.95429688 14.38316406 -42.86953125 14.34835938 -43.8125 14.3125 C-44.22786295 8.30704402 -42.62267569 5.85971083 -38.87890625 1.3671875 C-28.0715033 -9.37892583 -11.93430501 -7.160583 0 0 Z " fill="#13181D" transform="translate(350.8125,111.6875)"/>
<path d="M0 0 C3.88234825 1.41073701 7.35845213 3.36499223 10.9375 5.4140625 C12.1126416 6.07643921 12.1126416 6.07643921 13.31152344 6.75219727 C19.59621303 10.31045914 25.8292911 13.95844347 32.02832031 17.66381836 C42.61727606 24.00784597 42.61727606 24.00784597 54.6875 23.9765625 C60.67302328 21.64671033 66.17520607 18.23718812 71.6875 14.9765625 C73.20537437 14.09314012 74.7236027 13.21032561 76.2421875 12.328125 C81.38845827 9.32281938 86.51986532 6.29334992 91.61328125 3.19921875 C92.40089844 2.73386719 93.18851562 2.26851562 94 1.7890625 C94.63550781 1.40363281 95.27101563 1.01820313 95.92578125 0.62109375 C98.28583669 -0.24234117 99.35159788 0.08563968 101.6875 0.9765625 C103.9765625 2.2109375 103.9765625 2.2109375 106.3125 3.7265625 C107.08851563 4.21640625 107.86453125 4.70625 108.6640625 5.2109375 C111.02729271 7.27306116 111.7515959 9.01789794 112.6875 11.9765625 C109.34840032 15.53743053 106.17498618 18.09591639 101.91796875 20.47265625 C100.79245605 21.10743896 99.66694336 21.74222168 98.50732422 22.39624023 C97.29657352 23.06889094 96.08579826 23.74149741 94.875 24.4140625 C92.99677186 25.46936518 91.12024041 26.52764261 89.24377441 27.58607483 C87.96524629 28.30700721 86.68618959 29.02700295 85.40661621 29.74607849 C78.91614959 33.39683726 72.4864616 37.14764584 66.0625 40.9140625 C64.09137859 42.06940762 62.12004549 43.22439169 60.1484375 44.37890625 C59.33165527 44.85835693 58.51487305 45.33780762 57.67333984 45.83178711 C53.26135192 48.375162 49.74308524 48.67489639 44.6875 47.9765625 C41.26243317 46.64118344 38.24090561 44.78943025 35.125 42.8515625 C33.28257357 41.7512661 31.44012473 40.65100724 29.59765625 39.55078125 C28.63875488 38.9686084 27.67985352 38.38643555 26.69189453 37.78662109 C23.60390534 35.9261992 20.49292987 34.111587 17.37109375 32.30859375 C16.31929932 31.70096191 15.26750488 31.09333008 14.18383789 30.46728516 C13.15379639 29.87222168 12.12375488 29.2771582 11.0625 28.6640625 C7.25527087 26.46022668 3.46309404 24.23418152 -0.3125 21.9765625 C-1.33053711 21.37150879 -2.34857422 20.76645508 -3.39746094 20.14306641 C-4.3877832 19.53769043 -5.37810547 18.93231445 -6.3984375 18.30859375 C-7.29353027 17.76565674 -8.18862305 17.22271973 -9.11083984 16.66333008 C-11.42701186 14.88883103 -12.33611763 13.69782123 -13.3125 10.9765625 C-13.19467049 7.94245256 -12.44695447 7.10130637 -10.203125 5.01953125 C-9.33171875 4.40722656 -8.4603125 3.79492188 -7.5625 3.1640625 C-6.70140625 2.53886719 -5.8403125 1.91367188 -4.953125 1.26953125 C-2.3125 -0.0234375 -2.3125 -0.0234375 0 0 Z " fill="#F2F2F2" transform="translate(42.3125,149.0234375)"/>
<path d="M0 0 C2.5168457 1.14233398 2.5168457 1.14233398 5.17578125 2.74609375 C6.16167236 3.33237549 7.14756348 3.91865723 8.16333008 4.52270508 C9.72216919 5.47052856 9.72216919 5.47052856 11.3125 6.4375 C13.46821224 7.72225691 15.62446405 9.00610889 17.78125 10.2890625 C18.83699219 10.92102539 19.89273438 11.55298828 20.98046875 12.20410156 C25.05977021 14.63030964 29.17531572 16.98671299 33.3125 19.3125 C33.95678955 19.67851318 34.6010791 20.04452637 35.26489258 20.42163086 C40.47942141 23.35360038 44.98097728 24.84831864 51 24 C56.269081 22.01545936 60.99198903 19.38763532 65.8125 16.5 C66.53808105 16.07291748 67.26366211 15.64583496 68.01123047 15.20581055 C72.01545987 12.83609165 75.96039529 10.39659624 79.86328125 7.86328125 C81.05763794 7.09951172 81.05763794 7.09951172 82.27612305 6.3203125 C83.81038515 5.33542499 85.33462011 4.33468965 86.84692383 3.31640625 C90.48073245 0.99690076 92.33665909 -0.00760078 96.75 0.04296875 C99.70367108 0.91273968 101.84539306 1.78026722 104.375 3.5 C105.04273438 3.9434375 105.71046875 4.386875 106.3984375 4.84375 C108.92388583 6.6670005 108.92388583 6.6670005 109.5 9.1875 C108.85970294 12.78917096 107.22011983 14.15110187 104.3984375 16.359375 C99.87215591 19.45552853 95.08640848 22.08163791 90.2890625 24.7265625 C87.67066025 26.18321631 85.06940086 27.66813916 82.46875 29.15625 C77.54450481 31.97196341 72.60512931 34.75891002 67.65087891 37.52148438 C66.01781108 38.43232051 64.38680743 39.3468834 62.75927734 40.26757812 C60.91331799 41.30539443 59.05510807 42.31432332 57.1875 43.3125 C55.72376953 44.11107422 55.72376953 44.11107422 54.23046875 44.92578125 C48.65249358 46.78060975 43.78129003 47.10665652 38.24194336 44.90258789 C35.21161823 43.33291746 32.29596215 41.63978181 29.375 39.875 C28.30338623 39.25061035 27.23177246 38.6262207 26.12768555 37.98291016 C23.88070439 36.67092657 21.63913855 35.34962839 19.40283203 34.01953125 C16.03147109 32.01867763 12.64272484 30.05134847 9.24609375 28.09375 C-12.41639218 15.58360782 -12.41639218 15.58360782 -16 12 C-16.44921875 9.61328125 -16.44921875 9.61328125 -16 7 C-13.76953125 4.98046875 -13.76953125 4.98046875 -10.8125 3.1875 C-9.84957031 2.58292969 -8.88664062 1.97835937 -7.89453125 1.35546875 C-4.78215736 -0.10201268 -3.37444788 -0.32734389 0 0 Z " fill="#F1F2F2" transform="translate(45,120)"/>
<path d="M0 0 C4.62 0 9.24 0 14 0 C14.33 14.52 14.66 29.04 15 44 C22.52118695 36.92727109 22.52118695 36.92727109 29 29 C29.66 29 30.32 29 31 29 C31.268125 28.401875 31.53625 27.80375 31.8125 27.1875 C33.03014914 24.9444621 34.03730444 23.61743035 36 22 C37.90112305 21.65942383 37.90112305 21.65942383 40.01171875 21.70703125 C40.76904297 21.71669922 41.52636719 21.72636719 42.30664062 21.73632812 C43.09232422 21.76146484 43.87800781 21.78660156 44.6875 21.8125 C45.88342773 21.83280273 45.88342773 21.83280273 47.10351562 21.85351562 C49.06929967 21.88882911 51.03473582 21.94263553 53 22 C51.67905271 24.9362794 50.26147451 26.97094733 47.953125 29.20703125 C47.355 29.79419922 46.756875 30.38136719 46.140625 30.98632812 C45.51671875 31.58896484 44.8928125 32.19160156 44.25 32.8125 C39.99635416 36.94448436 35.96307463 41.08758452 32.25292969 45.72143555 C31.83946289 46.14336182 31.42599609 46.56528809 31 47 C30.34 47 29.68 47 29 47 C29.4846875 47.66644531 29.969375 48.33289063 30.46875 49.01953125 C31.1390625 49.94121094 31.809375 50.86289063 32.5 51.8125 C33.23347656 52.82054687 33.96695313 53.82859375 34.72265625 54.8671875 C36.1490226 56.8293587 37.57376318 58.7927139 38.99609375 60.7578125 C41.79944043 64.62722059 44.60257098 68.49236296 47.50390625 72.2890625 C47.91970947 72.83506104 48.3355127 73.38105957 48.76391602 73.94360352 C49.94279877 75.48758367 51.12750426 77.02711279 52.3125 78.56640625 C54 81 54 81 54 83 C39.13199578 84.67265048 39.13199578 84.67265048 34.37109375 80.9375 C32.34152679 78.05100476 30.66878213 75.10791534 29 72 C27.59372775 69.95731256 26.15680307 67.93532935 24.6875 65.9375 C24.05199219 65.03902344 23.41648437 64.14054687 22.76171875 63.21484375 C21.01837883 60.79134437 21.01837883 60.79134437 18 59 C17.690625 59.639375 17.38125 60.27875 17.0625 60.9375 C16 63 16 63 15 64 C14.84379445 65.41327947 14.74943827 66.8335459 14.68359375 68.25390625 C14.64169922 69.10791016 14.59980469 69.96191406 14.55664062 70.84179688 C14.51732422 71.73962891 14.47800781 72.63746094 14.4375 73.5625 C14.39431641 74.46419922 14.35113281 75.36589844 14.30664062 76.29492188 C14.20022016 78.52975156 14.09957519 80.76485486 14 83 C9.38 83 4.76 83 0 83 C0 55.61 0 28.22 0 0 Z " fill="#0E1318" transform="translate(438,86)"/>
<path d="M0 0 C3.63833198 3.54504142 6.2176911 8.23137565 8 13 C8 14.32 8 15.64 8 17 C3.05 17 -1.9 17 -7 17 C-7.99 15.02 -8.98 13.04 -10 11 C-13.91617185 7.53919697 -16.94337398 6.38750233 -22.046875 6.6796875 C-26.54616059 7.41757034 -29.298587 9.22275857 -32.3125 12.5625 C-35.33441844 16.9274933 -35.25100023 20.56761905 -35.3125 25.75 C-35.34150391 26.54921875 -35.37050781 27.3484375 -35.40039062 28.171875 C-35.45878273 33.63378307 -34.59690618 36.64901145 -31 41 C-27.80831935 44.19168065 -24.44540351 44.16896018 -20.0625 44.25 C-15.87774112 44.18845943 -13.20559374 43.91417613 -10 41 C-9.01 39.02 -8.02 37.04 -7 35 C-2.05 35 2.9 35 8 35 C6.70448122 42.65533826 5.06950518 48.03488356 -1.375 52.73046875 C-10.19242838 58.25448266 -19.32577885 59.54621345 -29.63671875 57.46875 C-38.49607163 54.70114231 -43.53749138 50.03751553 -48 42 C-50.78365685 36.5250351 -51.51780268 32.20191576 -51.4375 26.1875 C-51.42992676 25.39432373 -51.42235352 24.60114746 -51.41455078 23.78393555 C-51.1725379 15.1536148 -48.87168665 8.01139126 -42.90234375 1.6015625 C-30.00150066 -9.2595169 -13.66529022 -9.76092159 0 0 Z " fill="#11161A" transform="translate(419,113)"/>
<path d="M0 0 C4.62 0 9.24 0 14 0 C14 4.62 14 9.24 14 14 C18.62 14 23.24 14 28 14 C28 18.29 28 22.58 28 27 C23.38 27 18.76 27 14 27 C14.01939703 31.78802359 14.0710371 36.57420311 14.15258789 41.36157227 C14.17578467 42.99005077 14.1901676 44.61867966 14.19555664 46.24731445 C14.20483492 48.58900841 14.24579256 50.92833208 14.29296875 53.26953125 C14.2890361 53.99775589 14.28510345 54.72598053 14.28105164 55.47627258 C14.29318477 57.78765918 14.29318477 57.78765918 15 61 C17.98780057 63.42470574 20.50762071 64.3650526 24.3125 64.6875 C25.529375 64.790625 26.74625 64.89375 28 65 C28 68.96 28 72.92 28 77 C25.12397545 77.10852923 22.25209168 77.1875515 19.375 77.25 C18.56675781 77.28351563 17.75851562 77.31703125 16.92578125 77.3515625 C10.44862423 77.45688213 7.12468815 75.69369668 2.1875 71.4375 C0.02422369 68.8187971 -0.12376765 66.2343435 -0.11352539 62.98754883 C-0.11344986 62.18694534 -0.11337433 61.38634186 -0.11329651 60.56147766 C-0.10813522 59.70201035 -0.10297394 58.84254303 -0.09765625 57.95703125 C-0.0962413 57.0734343 -0.09482635 56.18983734 -0.09336853 55.27946472 C-0.08777069 52.45710872 -0.07521861 49.63483203 -0.0625 46.8125 C-0.05748472 44.89908969 -0.05292186 42.98567813 -0.04882812 41.07226562 C-0.03780197 36.38147986 -0.02053883 31.69075337 0 27 C-2.97 27 -5.94 27 -9 27 C-9 23.04 -9 19.08 -9 15 C-6.03 15 -3.06 15 0 15 C0 10.05 0 5.1 0 0 Z " fill="#111519" transform="translate(534,93)"/>
<path d="M0 0 C4.62 0 9.24 0 14 0 C14 4.95 14 9.9 14 15 C18.29 15 22.58 15 27 15 C27 18.96 27 22.92 27 27 C22.71 27 18.42 27 14 27 C14.04411731 31.787869 14.11390915 36.57441465 14.20751953 41.36157227 C14.23574489 42.99004585 14.25695172 44.61865683 14.27099609 46.24731445 C14.29240532 48.58876971 14.33903964 50.92857045 14.390625 53.26953125 C14.39185364 53.99775589 14.39308228 54.72598053 14.39434814 55.47627258 C14.48965837 58.76537591 14.55096019 60.53657978 16.890625 62.95117188 C19.26806075 64.13328576 21.10813738 64.4932454 23.75 64.6875 C25.1525 64.790625 26.555 64.89375 28 65 C28 68.96 28 72.92 28 77 C25.14420924 77.13599004 22.29498825 77.23454826 19.4375 77.3125 C18.63763672 77.35439453 17.83777344 77.39628906 17.01367188 77.43945312 C11.88170318 77.54418718 8.67232924 76.76507635 4.49243164 73.76635742 C-0.08025534 68.35438452 -0.42469666 62.76795246 -0.29296875 56.00390625 C-0.28872391 55.17036118 -0.28447906 54.3368161 -0.28010559 53.47801208 C-0.26343314 50.83916689 -0.22580358 48.20111084 -0.1875 45.5625 C-0.17243833 43.76368297 -0.15875253 41.96485387 -0.14648438 40.16601562 C-0.11356728 35.77704385 -0.06186567 31.38865531 0 27 C-2.97 27 -5.94 27 -9 27 C-9 23.04 -9 19.08 -9 15 C-6.03 15 -3.06 15 0 15 C0 10.05 0 5.1 0 0 Z " fill="#0F1418" transform="translate(267,93)"/>
<path d="M0 0 C0.66 0.99 1.32 1.98 2 3 C4.05925139 3.72382467 4.05925139 3.72382467 6 4 C5.57943538 18.17302757 5.57943538 18.17302757 1 23 C-0.9460149 24.5082805 -2.87144934 25.74222007 -5 27 C-4.67 28.98 -4.34 30.96 -4 33 C-2.01508358 32.73323796 -2.01508358 32.73323796 0 32 C0.33 31.01 0.66 30.02 1 29 C1.66 29 2.32 29 3 29 C3 29.66 3 30.32 3 31 C3.99 31.495 3.99 31.495 5 32 C3.94583321 32.82328299 2.881178 33.63314321 1.8125 34.4375 C1.22082031 34.88996094 0.62914062 35.34242188 0.01953125 35.80859375 C-5.79984533 39.24168825 -14.73985059 38.97837066 -21.16015625 37.50390625 C-27.17917955 35.16244004 -31.13286901 30.63761711 -34 25 C-34.8712281 19.26441498 -35.23715991 12.97915783 -32 7.9375 C-24.85736301 -0.12290599 -10.08922961 -3.36307654 0 0 Z " fill="#14191D" transform="translate(338,133)"/>
<path d="M0 0 C4.62 0 9.24 0 14 0 C14 27.39 14 54.78 14 83 C9.38 83 4.76 83 0 83 C0 55.61 0 28.22 0 0 Z " fill="#0B1116" transform="translate(501,86)"/>
<path d="M0 0 C6.38971562 -0.38107874 9.90482218 0.52524009 14.8203125 4.6640625 C18.0299259 7.97020563 18.67298503 10.16203486 18.69140625 14.64453125 C18.58137603 19.04574009 18.50387127 21.94925592 15.37890625 25.26953125 C13.33829571 26.66681678 11.27690805 27.944098 9.12109375 29.15625 C7.21897301 30.16199814 7.21897301 30.16199814 6.37890625 32.26953125 C2.74890625 32.26953125 -0.88109375 32.26953125 -4.62109375 32.26953125 C-4.62109375 27.26953125 -4.62109375 27.26953125 -3.265625 25.64453125 C-2.66105469 25.19078125 -2.05648437 24.73703125 -1.43359375 24.26953125 C-0.48226562 23.51349609 -0.48226562 23.51349609 0.48828125 22.7421875 C1.1121875 22.25621094 1.73609375 21.77023438 2.37890625 21.26953125 C6.32758507 18.06176809 6.32758507 18.06176809 7.69140625 13.45703125 C7.58828125 12.73515625 7.48515625 12.01328125 7.37890625 11.26953125 C3.84896012 10.09288254 1.08435212 10.07102522 -2.62109375 10.26953125 C-6.04711985 12.06772941 -6.04711985 12.06772941 -6.62109375 16.26953125 C-10.58109375 16.26953125 -14.54109375 16.26953125 -18.62109375 16.26953125 C-18.2505791 10.09428714 -16.80727607 7.55538458 -12.62109375 3.26953125 C-8.49046487 0.51577866 -4.79088082 0.49265391 0 0 Z " fill="#14171A" transform="translate(90.62109375,77.73046875)"/>
<path d="M0 0 C0.37695208 4.71190102 0.46314703 8.07370593 -1.6875 12.375 C-5.29793943 16.47333665 -7.42042561 17.87463695 -12.9375 18.3125 C-16.5723247 18.16133527 -19.65901364 17.51139859 -23 16 C-25.46324069 12.30513897 -25.38991688 10.36706908 -25 6 C-21.98366505 1.5824598 -16.42337453 1.53352374 -11.54296875 0.5625 C-7.57227325 -0.06790811 -4.00264594 -0.24015876 0 0 Z " fill="#EFEFEF" transform="translate(343,141)"/>
<path d="M0 0 C0.53109375 0.23203125 1.0621875 0.4640625 1.609375 0.703125 C0.949375 2.353125 0.289375 4.003125 -0.390625 5.703125 C-1.050625 5.703125 -1.710625 5.703125 -2.390625 5.703125 C-2.720625 7.353125 -3.050625 9.003125 -3.390625 10.703125 C-2.58625 10.7959375 -2.58625 10.7959375 -1.765625 10.890625 C1.72094462 12.08339882 3.85877893 14.26509666 6.609375 16.703125 C6.279375 17.693125 5.949375 18.683125 5.609375 19.703125 C4.949375 19.703125 4.289375 19.703125 3.609375 19.703125 C3.609375 20.693125 3.609375 21.683125 3.609375 22.703125 C0.53113866 21.2754362 -2.040826 19.52815198 -4.765625 17.515625 C-8.40966789 15.00121468 -8.40966789 15.00121468 -12.828125 14.890625 C-13.67375 15.15875 -14.519375 15.426875 -15.390625 15.703125 C-16.050625 15.373125 -16.710625 15.043125 -17.390625 14.703125 C-17.390625 13.053125 -17.390625 11.403125 -17.390625 9.703125 C-16.400625 9.703125 -15.410625 9.703125 -14.390625 9.703125 C-14.390625 8.713125 -14.390625 7.723125 -14.390625 6.703125 C-11.90625 4.84375 -11.90625 4.84375 -8.640625 2.953125 C-7.57328125 2.31890625 -6.5059375 1.6846875 -5.40625 1.03125 C-2.390625 -0.296875 -2.390625 -0.296875 0 0 Z " fill="#131619" transform="translate(152.390625,135.296875)"/>
<path d="M0 0 C0 0.66 0 1.32 0 2 C-0.99 2 -1.98 2 -3 2 C-2.505 3.485 -2.505 3.485 -2 5 C-2.33 5.66 -2.66 6.32 -3 7 C-2.34 7.33 -1.68 7.66 -1 8 C-3.96143641 10.0620372 -6.96668782 12.04529665 -10 14 C-10.87785156 14.57234375 -11.75570312 15.1446875 -12.66015625 15.734375 C-18.60156598 19.32486721 -22.82936261 20.61440207 -29.78515625 20.015625 C-30.51605469 20.01046875 -31.24695313 20.0053125 -32 20 C-32.66 20.66 -33.32 21.32 -34 22 C-39.43455304 23.99636642 -44.24437157 24.23492361 -50 24 C-50 23.67 -50 23.34 -50 23 C-49.34588135 22.92813477 -48.6917627 22.85626953 -48.01782227 22.78222656 C-40.00437673 21.64685278 -33.91527583 18.74112706 -26.9375 14.75 C-25.92623047 14.18925781 -24.91496094 13.62851563 -23.87304688 13.05078125 C-0.4690477 0 -0.4690477 0 0 0 Z " fill="#181B1D" transform="translate(138,143)"/>
<path d="M0 0 C5.875 4.75 5.875 4.75 7 7 C7.38638269 11.01838001 7.25874364 13.46095076 5.5 17.125 C2.42265907 20.66394207 -0.91903055 22.76140996 -5 25 C-5 24.01 -5 23.02 -5 22 C-4.34 22 -3.68 22 -3 22 C-2.32041397 19.60280568 -2.32041397 19.60280568 -2 17 C-2.66 16.34 -3.32 15.68 -4 15 C-3.34 14.34 -2.68 13.68 -2 13 C-0.93995386 7.42021206 -0.93995386 7.42021206 -2 2 C-1.34 2 -0.68 2 0 2 C0 1.34 0 0.68 0 0 Z " fill="#202324" transform="translate(155,119)"/>
<path d="M0 0 C3.0625 0.25 3.0625 0.25 6.0625 2.25 C6.49382515 6.30445642 6.36269361 7.79970958 4.0625 11.25 C0.5625 11.625 0.5625 11.625 -2.9375 11.25 C-5.23913882 7.79754176 -5.28240322 6.30261287 -4.9375 2.25 C-2.9375 0.25 -2.9375 0.25 0 0 Z " fill="#1B1D20" transform="translate(90.9375,115.75)"/>
<path d="M0 0 C4.61513112 1.31860889 8.09897612 3.21355437 12 6 C10.68 6.33 9.36 6.66 8 7 C8.33 8.65 8.66 10.3 9 12 C3.03347646 10.42986223 -1.82909025 7.24970218 -7 4 C-6.34 3.34 -5.68 2.68 -5 2 C-4.67 2.33 -4.34 2.66 -4 3 C-3.34 2.67 -2.68 2.34 -2 2 C-1.34 2.33 -0.68 2.66 0 3 C0 2.01 0 1.02 0 0 Z " fill="#1A1D20" transform="translate(75,160)"/>
<path d="M0 0 C0.99 0.66 1.98 1.32 3 2 C2.319375 2.5775 1.63875 3.155 0.9375 3.75 C0.298125 4.4925 -0.34125 5.235 -1 6 C-0.86358623 8.21858253 -0.86358623 8.21858253 0 10 C0.99 10 1.98 10 3 10 C3.33 10.99 3.66 11.98 4 13 C1.03 14.65 -1.94 16.3 -5 18 C-6.32 16.35 -7.64 14.7 -9 13 C-7 11 -5 9 -3 7 C-3.99 6.01 -4.98 5.02 -6 4 C-5.01 4 -4.02 4 -3 4 C-3 3.34 -3 2.68 -3 2 C-2.01 1.34 -1.02 0.68 0 0 Z " fill="#181A1E" transform="translate(36,137)"/>
<path d="M0 0 C0.33 1.98 0.66 3.96 1 6 C-6.28571429 10.57142857 -6.28571429 10.57142857 -11 10 C-10.875 6.6875 -10.875 6.6875 -10 3 C-6.36139956 0.49340858 -4.44671416 0 0 0 Z " fill="#15181A" transform="translate(87,56)"/>
<path d="M0 0 C2.875 1.375 2.875 1.375 4.875 4.375 C4.1875 6.3125 4.1875 6.3125 2.875 8.375 C0.25 9.125 0.25 9.125 -2.125 9.375 C-2.125 8.715 -2.125 8.055 -2.125 7.375 C-3.775 7.705 -5.425 8.035 -7.125 8.375 C-7.6057396 2.96667951 -7.6057396 2.96667951 -5.5 0.375 C-3.125 -0.625 -3.125 -0.625 0 0 Z " fill="#0D0F14" transform="translate(41.125,139.625)"/>
<path d="M0 0 C5.75 1.75 5.75 1.75 8 4 C7.01 4.33 6.02 4.66 5 5 C5.66 6.65 6.32 8.3 7 10 C7.99 10 8.98 10 10 10 C10 10.99 10 11.98 10 13 C5.02790438 11.23570801 0.56561939 8.6060834 -4 6 C-3.34 5.67 -2.68 5.34 -2 5 C-1.6278958 3.67696283 -1.29369827 2.34262065 -1 1 C-0.67 0.67 -0.34 0.34 0 0 Z " fill="#1F2226" transform="translate(126,72)"/>
<path d="M0 0 C0 2.31 0 4.62 0 7 C-0.69867188 6.97679687 -1.39734375 6.95359375 -2.1171875 6.9296875 C-3.02726562 6.91164062 -3.93734375 6.89359375 -4.875 6.875 C-5.77992187 6.85179687 -6.68484375 6.82859375 -7.6171875 6.8046875 C-10.18806994 6.75675164 -10.18806994 6.75675164 -12 9 C-17.43455304 10.99636642 -22.24437157 11.23492361 -28 11 C-28 10.67 -28 10.34 -28 10 C-27.37996094 9.9484375 -26.75992188 9.896875 -26.12109375 9.84375 C-18.05751089 8.8108602 -12.03270074 5.64651445 -5.08984375 1.6796875 C-2 0 -2 0 0 0 Z " fill="#191D22" transform="translate(116,156)"/>
<path d="M0 0 C0.66 0.66 1.32 1.32 2 2 C1.01 2.495 1.01 2.495 0 3 C-0.65213292 5.02463255 -0.65213292 5.02463255 -1 7 C-0.34 7.33 0.32 7.66 1 8 C-1.64 8 -4.28 8 -7 8 C-7.66 5.69 -8.32 3.38 -9 1 C-5.98675805 -0.50662097 -3.31713623 -0.17770373 0 0 Z " fill="#282A2C" transform="translate(95,54)"/>
<path d="M0 0 C3.26954202 0.56371414 4.82575883 1.49962266 7 4 C6.690625 4.598125 6.38125 5.19625 6.0625 5.8125 C4.89790296 8.08956772 4.89790296 8.08956772 4 11 C3.54109375 10.66226563 3.0821875 10.32453125 2.609375 9.9765625 C-1.98192426 6.63691049 -1.98192426 6.63691049 -7 4 C-4.6921509 2.84607545 -2.52769669 2.46562834 0 2 C0 1.34 0 0.68 0 0 Z " fill="#1E2124" transform="translate(148,85)"/>
<path d="M0 0 C0 0.66 0 1.32 0 2 C-0.99 2 -1.98 2 -3 2 C-2.67 2.99 -2.34 3.98 -2 5 C-2.33 5.66 -2.66 6.32 -3 7 C-2.34 7.33 -1.68 7.66 -1 8 C-6.75 12 -6.75 12 -9 12 C-8.67 10.02 -8.34 8.04 -8 6 C-8.66 5.67 -9.32 5.34 -10 5 C-8.71186658 4.16121545 -7.41936744 3.32913217 -6.125 2.5 C-5.40570313 2.0359375 -4.68640625 1.571875 -3.9453125 1.09375 C-2 0 -2 0 0 0 Z " fill="#1D2023" transform="translate(138,143)"/>
<path d="M0 0 C3.465 1.98 3.465 1.98 7 4 C6.34 4.433125 5.68 4.86625 5 5.3125 C4.34 5.869375 3.68 6.42625 3 7 C3 7.99 3 8.98 3 10 C-0.59007126 8.66654496 -3.79570907 7.1056769 -7 5 C-7 4.67 -7 4.34 -7 4 C-3.535 3.505 -3.535 3.505 0 3 C0 2.01 0 1.02 0 0 Z " fill="#1E2022" transform="translate(52,176)"/>
<path d="M0 0 C1.65 0 3.3 0 5 0 C5 0.99 5 1.98 5 3 C5.66 3.66 6.32 4.32 7 5 C8.44754255 6.44754255 8.55733561 8.03962913 9 10 C3.25 8.125 3.25 8.125 1 7 C1 6.34 1 5.68 1 5 C0.34 5 -0.32 5 -1 5 C-0.67 3.35 -0.34 1.7 0 0 Z " fill="#1A1D1F" transform="translate(95,56)"/>
<path d="M0 0 C-0.66 0.5775 -1.32 1.155 -2 1.75 C-4.44290923 3.99653977 -4.44290923 3.99653977 -4 8 C-6.8125 7.75 -6.8125 7.75 -10 7 C-11.69921875 4.953125 -11.69921875 4.953125 -13 3 C-11.40084119 2.30093058 -9.79544955 1.61610532 -8.1875 0.9375 C-7.29417969 0.55464844 -6.40085937 0.17179688 -5.48046875 -0.22265625 C-3 -1 -3 -1 0 0 Z " fill="#101217" transform="translate(102,136)"/>
<path d="M0 0 C1.32 0 2.64 0 4 0 C4 0.66 4 1.32 4 2 C6.97 2.495 6.97 2.495 10 3 C6.80331012 5.6486859 3.60513403 7.93992341 0 10 C-0.66 9.01 -1.32 8.02 -2 7 C-1.34 6.67 -0.68 6.34 0 6 C0.65213292 3.97536745 0.65213292 3.97536745 1 2 C0.34 1.67 -0.32 1.34 -1 1 C-0.67 0.67 -0.34 0.34 0 0 Z " fill="#1C1F21" transform="translate(30,117)"/>
<path d="M0 0 C3 1 3 1 4.25 3.3125 C5.0319744 6.11457493 5.21828116 7.37600981 4 10 C3.01 10.33 2.02 10.66 1 11 C-0.625 7.75 -0.625 7.75 -2 4 C-1.1875 1.5625 -1.1875 1.5625 0 0 Z " fill="#0C0F12" transform="translate(154,89)"/>
<path d="M0 0 C1.32 0.66 2.64 1.32 4 2 C3.01 2.33 2.02 2.66 1 3 C0.67 3.66 0.34 4.32 0 5 C-0.99 5.495 -0.99 5.495 -2 6 C-2.33 12.27 -2.66 18.54 -3 25 C-3.33 25 -3.66 25 -4 25 C-4.11667875 21.77113991 -4.18740546 18.54282555 -4.25 15.3125 C-4.28351563 14.40048828 -4.31703125 13.48847656 -4.3515625 12.54882812 C-4.45112665 5.70379255 -4.45112665 5.70379255 -1.984375 1.85546875 C-1.32953125 1.24316406 -0.6746875 0.63085938 0 0 Z " fill="#D1D5D7" transform="translate(456,145)"/>
<path d="M0 0 C-5.38097582 3.58731722 -11.67055013 3.60721552 -18 3 C-19.32 2.34 -20.64 1.68 -22 1 C-18.37 1.33 -14.74 1.66 -11 2 C-11 1.34 -11 0.68 -11 0 C-6.98195309 -0.84098656 -3.98196457 -1.05404945 0 0 Z " fill="#57595B" transform="translate(233,169)"/>
<path d="M0 0 C0.66 1.32 1.32 2.64 2 4 C-0.64 6.97 -3.28 9.94 -6 13 C-6.33 12.01 -6.66 11.02 -7 10 C-6.34 10 -5.68 10 -5 10 C-4.9175 9.46375 -4.835 8.9275 -4.75 8.375 C-3.73623902 5.1647569 -1.92839451 2.73707608 0 0 Z " fill="#1E2326" transform="translate(475,120)"/>
<path d="M0 0 C0.144375 0.639375 0.28875 1.27875 0.4375 1.9375 C0.81007181 3.97545146 0.81007181 3.97545146 2 5 C3.67884238 5.3931648 5.36850045 5.74085452 7.0625 6.0625 C7.98160156 6.23910156 8.90070313 6.41570312 9.84765625 6.59765625 C10.55792969 6.73042969 11.26820313 6.86320312 12 7 C12 7.33 12 7.66 12 8 C7.71 8 3.42 8 -1 8 C-1 2 -1 2 0 0 Z " fill="#242627" transform="translate(308,118)"/>
<path d="M0 0 C0 0.66 0 1.32 0 2 C-0.66 2 -1.32 2 -2 2 C-1.34 3.98 -0.68 5.96 0 8 C-1.32 8 -2.64 8 -4 8 C-4.33 7.01 -4.66 6.02 -5 5 C-5.66 4.34 -6.32 3.68 -7 3 C-2.25 0 -2.25 0 0 0 Z " fill="#1E2226" transform="translate(133,176)"/>
<path d="M0 0 C2.64 1.98 5.28 3.96 8 6 C4.29847322 6.92538169 3.36541838 7.08174162 0 6 C-0.33 6.66 -0.66 7.32 -1 8 C-1.625 5.6875 -1.625 5.6875 -2 3 C-1.34 2.01 -0.68 1.02 0 0 Z " fill="#E5E6E7" transform="translate(306,162)"/>
<path d="M0 0 C-0.99 0.495 -0.99 0.495 -2 1 C-1.67 1.99 -1.34 2.98 -1 4 C-2 5 -2 5 -5.0625 5.0625 C-6.5165625 5.0315625 -6.5165625 5.0315625 -8 5 C-6.19780722 -0.02039417 -5.34443412 -1.60333024 0 0 Z " fill="#0F1215" transform="translate(151,168)"/>
<path d="M0 0 C0.33 0.66 0.66 1.32 1 2 C-0.375 4 -0.375 4 -2 6 C-2.66 6 -3.32 6 -4 6 C-4.226875 6.556875 -4.45375 7.11375 -4.6875 7.6875 C-6.35896766 10.63246684 -8.55276352 12.68156544 -11 15 C-11.33 14.01 -11.66 13.02 -12 12 C-11.13375 11.319375 -10.2675 10.63875 -9.375 9.9375 C-5.8104467 6.98401298 -2.91215245 3.58339327 0 0 Z " fill="#D0D3D5" transform="translate(479,121)"/>
<path d="M0 0 C0 1.98 0 3.96 0 6 C-0.99 6.33 -1.98 6.66 -3 7 C-2.67 5.02 -2.34 3.04 -2 1 C-6.95 1 -11.9 1 -17 1 C-17 0.67 -17 0.34 -17 0 C-14.54203147 -0.19436491 -12.08390706 -0.3807742 -9.625 -0.5625 C-8.92632812 -0.61857422 -8.22765625 -0.67464844 -7.5078125 -0.73242188 C-2.2265625 -1.11328125 -2.2265625 -1.11328125 0 0 Z " fill="#B6B7B9" transform="translate(429,147)"/>
<path d="M0 0 C2.475 0.99 2.475 0.99 5 2 C5 2.99 5 3.98 5 5 C4.34 5 3.68 5 3 5 C3 5.66 3 6.32 3 7 C1.68 6.67 0.36 6.34 -1 6 C-0.67 4.02 -0.34 2.04 0 0 Z " fill="#0F1014" transform="translate(30,134)"/>
<path d="M0 0 C1.98 0.495 1.98 0.495 4 1 C4 1.66 4 2.32 4 3 C3.34 3 2.68 3 2 3 C2.66 4.65 3.32 6.3 4 8 C3.01 8 2.02 8 1 8 C-1 5 -1 5 -0.625 2.3125 C-0.41875 1.549375 -0.2125 0.78625 0 0 Z " fill="#0E1014" transform="translate(151,118)"/>
<path d="M0 0 C0.99 0.66 1.98 1.32 3 2 C2.01 2.8971875 2.01 2.8971875 1 3.8125 C-1.3373846 5.87501834 -1.3373846 5.87501834 -1 9 C-3.46278801 7.768606 -4.42497687 6.21935077 -6 4 C-5.01 4 -4.02 4 -3 4 C-3 3.34 -3 2.68 -3 2 C-2.01 1.34 -1.02 0.68 0 0 Z " fill="#24272C" transform="translate(36,137)"/>
<path d="M0 0 C-2.8125 1.5625 -2.8125 1.5625 -6 3 C-6.99 2.67 -7.98 2.34 -9 2 C-8.67 1.01 -8.34 0.02 -8 -1 C-4.71293093 -2.47351372 -2.99288606 -1.8171094 0 0 Z " fill="#131A20" transform="translate(115,164)"/>
<path d="M0 0 C-3.19373157 3.19373157 -7.06829832 3.90188182 -11.4609375 4.125 C-13.64439214 4.125 -15.81849415 4.08904106 -18 4 C-18 3.67 -18 3.34 -18 3 C-17.25234375 2.87882813 -16.5046875 2.75765625 -15.734375 2.6328125 C-14.74953125 2.46523437 -13.7646875 2.29765625 -12.75 2.125 C-11.77546875 1.96257812 -10.8009375 1.80015625 -9.796875 1.6328125 C-7.02555762 1.13092726 -7.02555762 1.13092726 -4.828125 -0.1328125 C-3 -1 -3 -1 0 0 Z " fill="#4F5356" transform="translate(106,163)"/>
<path d="M0 0 C0.99 0.99 1.98 1.98 3 3 C2.34 3 1.68 3 1 3 C0.67 4.32 0.34 5.64 0 7 C-0.33 6.34 -0.66 5.68 -1 5 C-1.66 5 -2.32 5 -3 5 C-3.33 5.66 -3.66 6.32 -4 7 C-4 6.34 -4 5.68 -4 5 C-4.66 5 -5.32 5 -6 5 C-5.67 4.01 -5.34 3.02 -5 2 C-5 2.66 -5 3.32 -5 4 C-1.87802522 2.6910428 -1.87802522 2.6910428 0 0 Z " fill="#080C11" transform="translate(456,128)"/>
<path d="M0 0 C2.475 0.99 2.475 0.99 5 2 C4.67 3.65 4.34 5.3 4 7 C2.68 7 1.36 7 0 7 C-1.125 2.25 -1.125 2.25 0 0 Z " fill="#101417" transform="translate(144,82)"/>
<path d="M0 0 C0.99 0.33 1.98 0.66 3 1 C2.67 1.66 2.34 2.32 2 3 C1.34 3 0.68 3 0 3 C-0.33 3.99 -0.66 4.98 -1 6 C-2.32 5.34 -3.64 4.68 -5 4 C-3.36587557 2.29159719 -2.13093906 1.06546953 0 0 Z " fill="#252728" transform="translate(124,180)"/>
<path d="M0 0 C0.33 0.99 0.66 1.98 1 3 C1.99 3.33 2.98 3.66 4 4 C4 4.66 4 5.32 4 6 C2.68 6.33 1.36 6.66 0 7 C-0.33 6.01 -0.66 5.02 -1 4 C-1.66 3.34 -2.32 2.68 -3 2 C-2.01 1.34 -1.02 0.68 0 0 Z " fill="#070D12" transform="translate(30,164)"/>
<path d="M0 0 C2 2 2 2 2 4 C-1.96 5.98 -1.96 5.98 -6 8 C-5.67 7.01 -5.34 6.02 -5 5 C-4.34 5 -3.68 5 -3 5 C-2.5359375 4.0409375 -2.5359375 4.0409375 -2.0625 3.0625 C-1 1 -1 1 0 0 Z " fill="#E7E8E8" transform="translate(148,132)"/>
<path d="M0 0 C0.33 0.66 0.66 1.32 1 2 C0.67 2.99 0.34 3.98 0 5 C-0.66 5 -1.32 5 -2 5 C-2 5.66 -2 6.32 -2 7 C-3.32 6.67 -4.64 6.34 -6 6 C-6 5.34 -6 4.68 -6 4 C-4.03852126 2.61061923 -2.03833424 1.2739589 0 0 Z " fill="#D0D2D3" transform="translate(155,110)"/>
<path d="M0 0 C2.0625 0.4375 2.0625 0.4375 4 1 C2.75 3 2.75 3 1 5 C-0.32 5 -1.64 5 -3 5 C-1.125 1.125 -1.125 1.125 0 0 Z " fill="#1C2023" transform="translate(78,81)"/>
<path d="M0 0 C2.475 0.99 2.475 0.99 5 2 C5 2.99 5 3.98 5 5 C4.01 5.33 3.02 5.66 2 6 C1.01 4.68 0.02 3.36 -1 2 C-0.67 1.34 -0.34 0.68 0 0 Z " fill="#E3E5E5" transform="translate(28,141)"/>
<path d="M0 0 C0.66 0 1.32 0 2 0 C3.625 2 3.625 2 5 4 C4.38125 4.12375 3.7625 4.2475 3.125 4.375 C0.80879168 4.87197356 0.80879168 4.87197356 -1 7 C-1.33 5.35 -1.66 3.7 -2 2 C-1.34 2 -0.68 2 0 2 C0 1.34 0 0.68 0 0 Z " fill="#080E13" transform="translate(133,176)"/>
<path d="M0 0 C0.99 0.33 1.98 0.66 3 1 C1.515 3.475 1.515 3.475 0 6 C-1.32 5.67 -2.64 5.34 -4 5 C-3.67 4.01 -3.34 3.02 -3 2 C-2.01 2 -1.02 2 0 2 C0 1.34 0 0.68 0 0 Z " fill="#0E1116" transform="translate(116,128)"/>
<path d="M0 0 C1.65 1.65 3.3 3.3 5 5 C4.67 5.66 4.34 6.32 4 7 C3.01 7 2.02 7 1 7 C1 6.34 1 5.68 1 5 C0.34 4.67 -0.32 4.34 -1 4 C-0.34 4 0.32 4 1 4 C0.67 2.68 0.34 1.36 0 0 Z " fill="#E2E4E5" transform="translate(407,122)"/>
<path d="M0 0 C0.66 1.32 1.32 2.64 2 4 C1.34 4.66 0.68 5.32 0 6 C-0.99 5.67 -1.98 5.34 -3 5 C-3.33 4.34 -3.66 3.68 -4 3 C-2.68 2.01 -1.36 1.02 0 0 Z " fill="#202628" transform="translate(152,103)"/>
<path d="M0 0 C0.78375 0.185625 1.5675 0.37125 2.375 0.5625 C4.97089775 1.25962266 4.97089775 1.25962266 7 0 C6.67 1.65 6.34 3.3 6 5 C4.35 4.67 2.7 4.34 1 4 C0.67 2.68 0.34 1.36 0 0 Z " fill="#0B0C17" transform="translate(135,81)"/>
<path d="M0 0 C0.66 0.33 1.32 0.66 2 1 C1.67 1.99 1.34 2.98 1 4 C-1.31 4.33 -3.62 4.66 -6 5 C-5.195625 4.360625 -4.39125 3.72125 -3.5625 3.0625 C-1.7249496 1.59396498 -1.7249496 1.59396498 0 0 Z M-3 6 C-1 7 -1 7 -1 7 Z " fill="#2F3233" transform="translate(113,186)"/>
<path d="M0 0 C0.99 0.33 1.98 0.66 3 1 C3.33 2.65 3.66 4.3 4 6 C2.68 6.33 1.36 6.66 0 7 C0 4.66666667 0 2.33333333 0 0 Z " fill="#141619" transform="translate(126,180)"/>
<path d="M0 0 C0.66 0 1.32 0 2 0 C2 0.66 2 1.32 2 2 C2.66 2.33 3.32 2.66 4 3 C1.69 4.32 -0.62 5.64 -3 7 C-3 6.01 -3 5.02 -3 4 C-2.34 3.67 -1.68 3.34 -1 3 C-0.67 2.01 -0.34 1.02 0 0 Z " fill="#1B2023" transform="translate(339,162)"/>
<path d="M0 0 C0.99 0.33 1.98 0.66 3 1 C3 1.66 3 2.32 3 3 C3.99 3.33 4.98 3.66 6 4 C6 4.99 6 5.98 6 7 C3.53199953 5.84826645 1.95216435 4.95216435 0 3 C0 2.01 0 1.02 0 0 Z " fill="#1B2025" transform="translate(24,164)"/>
<path d="M0 0 C2.97 0.33 5.94 0.66 9 1 C9 1.66 9 2.32 9 3 C6.36 3 3.72 3 1 3 C0.67 2.01 0.34 1.02 0 0 Z " fill="#2F3033" transform="translate(87,142)"/>
<path d="M0 0 C0 0.66 0 1.32 0 2 C-1.65 1.67 -3.3 1.34 -5 1 C-5 1.66 -5 2.32 -5 3 C-6.32 2.34 -7.64 1.68 -9 1 C-5.64919071 -1.10976881 -3.77897651 -1.0497157 0 0 Z " fill="#1B1D23" transform="translate(92,141)"/>
<path d="M0 0 C0.99 0.66 1.98 1.32 3 2 C2.34 2 1.68 2 1 2 C1 3.65 1 5.3 1 7 C0.01 7.495 0.01 7.495 -1 8 C-1.66 7.34 -2.32 6.68 -3 6 C-2.625 3.875 -2.625 3.875 -2 2 C-1.34 2 -0.68 2 0 2 C0 1.34 0 0.68 0 0 Z " fill="#1D1F21" transform="translate(150,116)"/>
<path d="M0 0 C0.33 0.99 0.66 1.98 1 3 C-2.3 2.01 -5.6 1.02 -9 0 C-9 -0.33 -9 -0.66 -9 -1 C-5.28390294 -2.03224918 -3.21421745 -2.29586961 0 0 Z " fill="#1C2020" transform="translate(342,118)"/>
<path d="M0 0 C0.99 0.495 0.99 0.495 2 1 C2.33 1 2.66 1 3 1 C3.99 1 4.98 1 6 1 C5.67 1.99 5.34 2.98 5 4 C2.9375 4.6875 2.9375 4.6875 1 5 C0.67 3.35 0.34 1.7 0 0 Z " fill="#081013" transform="translate(333,162)"/>
<path d="M0 0 C1.32 0.66 2.64 1.32 4 2 C3.38125 2.0825 2.7625 2.165 2.125 2.25 C-0.18437567 2.81258459 -0.18437567 2.81258459 -1.25 5.0625 C-1.4975 5.701875 -1.745 6.34125 -2 7 C-2.66 6.34 -3.32 5.68 -4 5 C-2.68 3.35 -1.36 1.7 0 0 Z " fill="#1C2026" transform="translate(78,132)"/>
<path d="M0 0 C0.33 0.66 0.66 1.32 1 2 C0.25 4.0625 0.25 4.0625 -1 6 C-1.99 6.33 -2.98 6.66 -4 7 C-4 4 -4 4 -2 1.8125 C-1.34 1.214375 -0.68 0.61625 0 0 Z " fill="#090C0D" transform="translate(31,118)"/>
<path d="M0 0 C0.33 0.99 0.66 1.98 1 3 C-0.65 4.65 -2.3 6.3 -4 8 C-4.66 7.67 -5.32 7.34 -6 7 C-4.02 4.69 -2.04 2.38 0 0 Z " fill="#282B2D" transform="translate(467,115)"/>
<path d="M0 0 C0.66 0.33 1.32 0.66 2 1 C-2.296875 5.00390625 -2.296875 5.00390625 -4 6 C-6.203125 5.65234375 -6.203125 5.65234375 -8 5 C-6.71475739 4.13619741 -5.42157581 3.28419631 -4.125 2.4375 C-3.04605469 1.72400391 -3.04605469 1.72400391 -1.9453125 0.99609375 C-1.30335938 0.66738281 -0.66140625 0.33867188 0 0 Z " fill="#303334" transform="translate(146,107)"/>
<path d="M0 0 C-0.33 0.99 -0.66 1.98 -1 3 C-4.63 3 -8.26 3 -12 3 C-12 2.67 -12 2.34 -12 2 C-10.37548581 1.66430703 -8.75037083 1.3315204 -7.125 1 C-6.22007813 0.814375 -5.31515625 0.62875 -4.3828125 0.4375 C-2 0 -2 0 0 0 Z " fill="#46474A" transform="translate(100,195)"/>
<path d="M0 0 C0.66 0 1.32 0 2 0 C1.67 2.31 1.34 4.62 1 7 C0.01 6.67 -0.98 6.34 -2 6 C-2 4.68 -2 3.36 -2 2 C-1.34 2 -0.68 2 0 2 C0 1.34 0 0.68 0 0 Z " fill="#0E1015" transform="translate(128,149)"/>
<path d="M0 0 C1.32 0.66 2.64 1.32 4 2 C3.01 2.33 2.02 2.66 1 3 C0.67 3.66 0.34 4.32 0 5 C-0.99 5.33 -1.98 5.66 -3 6 C-2 4 -1 2 0 0 Z " fill="#DEE0E1" transform="translate(456,145)"/>
</svg>
